<svg width="161" height="24" viewBox="0 0 161 24" fill="none" xmlns="http://www.w3.org/2000/svg">
<path d="M34.7308 12.4952C34.7308 15.5414 35.8899 17.6968 39.3374 17.6968C41.8041 17.6968 43.201 16.1737 43.201 16.1737L43.409 16.9209C43.4982 17.2083 43.617 17.4094 43.944 17.4094H44.5086C44.8058 17.4094 45.0733 17.1508 45.0733 16.8634V6.46009C45.0733 6.17271 44.8058 5.91406 44.5086 5.91406H43.5873C43.2901 5.91406 43.0226 6.17271 43.0226 6.46009V14.1332C43.0226 14.1332 41.7447 15.7713 39.486 15.7713C37.8217 15.7713 36.8112 14.708 36.8112 12.5239V6.46009C36.8112 6.17271 36.5437 5.91406 36.2465 5.91406H35.2955C34.9983 5.91406 34.7308 6.17271 34.7308 6.46009V12.4952Z" fill="#EBEBF5"/>
<path fill-rule="evenodd" clip-rule="evenodd" d="M66.0005 10.1101C62.9393 10.1101 61.2453 11.7482 61.2453 13.9324C61.2453 16.2314 62.8205 17.6971 64.9008 17.6971C66.7435 17.6971 67.962 16.8062 68.5861 16.2027L68.8239 16.9786C68.913 17.2373 69.0022 17.4097 69.3291 17.4097H69.8938C70.191 17.4097 70.4585 17.1511 70.4585 16.8637V10.4837C70.4585 7.12135 69.7155 5.62695 66.684 5.62695C64.455 5.62695 62.7313 6.28794 62.553 6.37415C62.2855 6.48911 62.1072 6.66154 62.2261 7.0064L62.4638 7.72486C62.553 7.9835 62.7313 8.12719 63.0285 8.01224C63.5634 7.81107 64.9603 7.38 66.5949 7.38C68.2889 7.38 68.5564 8.3571 68.5267 10.4837C68.5267 10.4837 67.2784 10.1101 66.0005 10.1101ZM65.2273 15.9728C63.9494 15.9728 63.1469 15.0819 63.1469 13.9323C63.1469 12.4379 64.3357 11.6333 66 11.6333C67.3077 11.6333 68.1399 11.8919 68.4965 12.0931V14.3634C67.9913 15.0819 66.7133 15.9728 65.2273 15.9728Z" fill="#EBEBF5"/>
<path d="M73.226 11.6908C73.226 15.1394 76.0197 17.6971 79.3186 17.6971C81.3395 17.6971 82.9741 16.6625 83.8657 15.2831C84.044 14.9957 83.9549 14.6796 83.6577 14.4784L83.3307 14.2485C83.0038 14.0186 82.7958 13.9611 82.4391 14.306C81.7556 14.9382 81.072 15.8003 79.2888 15.8003C77.0598 15.8003 75.3658 13.9611 75.3658 11.662C75.3658 9.36295 77.0896 7.58116 79.3186 7.58116C80.4776 7.58116 81.4584 8.12719 82.0528 8.78818C82.3203 9.01808 82.4689 9.30547 82.9147 8.90313L83.4793 8.44332C83.7468 8.24215 83.8063 7.89729 83.5982 7.63864C82.5283 6.31667 81.1315 5.62695 79.3483 5.62695C76.1088 5.62695 73.226 8.29962 73.226 11.6908Z" fill="#EBEBF5"/>
<path fill-rule="evenodd" clip-rule="evenodd" d="M91.4805 10.1101C88.4193 10.1101 86.7253 11.7482 86.7253 13.9324C86.7253 16.2314 88.3005 17.6971 90.3808 17.6971C92.2235 17.6971 93.442 16.8062 94.0661 16.2027L94.3039 16.9786C94.393 17.2373 94.4822 17.4097 94.8091 17.4097H95.3738C95.671 17.4097 95.9384 17.1511 95.9384 16.8637V10.4837C95.9384 7.12135 95.1954 5.62695 92.164 5.62695C89.935 5.62695 88.2113 6.28794 88.033 6.37415C87.7655 6.48911 87.5872 6.66154 87.7061 7.0064L87.9438 7.72486C88.033 7.9835 88.2113 8.12719 88.5085 8.01224C89.0435 7.81107 90.4403 7.38 92.0749 7.38C93.7689 7.38 94.0364 8.3571 94.0067 10.4837C94.0067 10.4837 92.7584 10.1101 91.4805 10.1101ZM90.7066 15.9728C89.4286 15.9728 88.6262 15.0819 88.6262 13.9323C88.6262 12.4379 89.815 11.6333 91.4793 11.6333C92.7869 11.6333 93.6191 11.8919 93.9757 12.0931V14.3634C93.4705 15.0819 92.1926 15.9728 90.7066 15.9728Z" fill="#EBEBF5"/>
<path fill-rule="evenodd" clip-rule="evenodd" d="M104.412 5.62646C100.846 5.62646 98.706 8.27039 98.706 11.6328C98.706 14.9377 101.084 17.6966 104.115 17.6966C106.344 17.6966 107.771 16.1735 107.771 16.1735L107.949 16.9494C108.008 17.208 108.187 17.4092 108.454 17.4092H109.078C109.375 17.4092 109.643 17.1506 109.643 16.8632V0.54603C109.643 0.258646 109.375 0 109.078 0H108.157C107.86 0 107.592 0.258646 107.592 0.54603V6.37366C107.592 6.37366 106.374 5.62646 104.412 5.62646ZM104.322 15.8859C102.153 15.8859 100.786 13.903 100.786 11.6614C100.786 9.36229 102.093 7.55177 104.679 7.55177C106.314 7.55177 107.562 8.24149 107.562 8.24149V13.9892C107.562 13.9892 106.462 15.8859 104.322 15.8859Z" fill="#EBEBF5"/>
<path fill-rule="evenodd" clip-rule="evenodd" d="M118.234 5.62695C114.638 5.62695 112.409 8.41458 112.409 11.662C112.409 14.9669 114.638 17.6971 118.234 17.6971C120.284 17.6971 121.889 16.9211 122.603 16.3751C123.048 16.059 122.929 15.8866 122.721 15.6279C122.632 15.513 122.55 15.4052 122.469 15.2974C122.387 15.1897 122.305 15.0819 122.216 14.9669C121.999 14.6786 121.832 14.7728 121.488 14.966C121.455 14.9846 121.421 15.0042 121.384 15.0244C120.7 15.4267 119.69 15.8866 118.442 15.8866C116.332 15.8866 114.578 14.076 114.459 12.1506H123.019C123.286 12.1506 123.524 11.9494 123.554 11.662C123.583 11.4608 123.613 11.0872 123.613 10.8861C123.613 7.86855 121.354 5.62695 118.234 5.62695ZM121.561 10.5412H114.488C114.696 8.75945 116.241 7.38001 118.232 7.38001C120.045 7.38001 121.472 8.87441 121.561 10.5412Z" fill="#EBEBF5"/>
<path d="M126.381 16.8637C126.381 17.1511 126.649 17.4097 126.946 17.4097H127.867C128.164 17.4097 128.432 17.1511 128.432 16.8637V9.19052C128.432 9.19052 129.71 7.55243 131.82 7.55243C133.633 7.55243 134.643 8.61575 134.643 10.7999V16.8637C134.643 17.1511 134.911 17.4097 135.208 17.4097H136.159C136.456 17.4097 136.724 17.1511 136.724 16.8637V10.7999C136.724 10.1964 136.664 9.65033 136.575 9.16178C136.991 8.78818 138.269 7.55243 140.201 7.55243C141.925 7.55243 142.876 8.64449 142.876 10.7999V16.8637C142.876 17.1511 143.143 17.4097 143.44 17.4097H144.391C144.688 17.4097 144.956 17.1511 144.956 16.8637V10.7999C144.956 7.81107 143.797 5.62695 140.349 5.62695C137.972 5.62695 136.07 7.38 135.921 7.49495C135.148 6.28794 133.87 5.62695 132.117 5.62695C129.65 5.62695 128.253 7.15009 128.253 7.15009L127.986 6.2592C127.926 6.02929 127.778 5.91434 127.51 5.91434H126.946C126.649 5.91434 126.381 6.17298 126.381 6.46037V16.8637Z" fill="#EBEBF5"/>
<path d="M153.319 17.3807L150.912 23.2817C150.704 23.6841 150.942 24.0002 151.388 24.0002H152.487C152.696 24.0002 152.904 23.8278 152.993 23.6553L160.719 6.57505C160.928 6.20145 160.719 5.91406 160.274 5.91406H159.144C158.936 5.91406 158.728 6.05775 158.639 6.23019L154.478 15.0241L150.05 6.23019C149.961 6.05775 149.783 5.91406 149.545 5.91406H148.237C147.791 5.91406 147.613 6.17271 147.791 6.54631L153.319 17.3807Z" fill="#EBEBF5"/>
<path d="M47.8388 16.8637C47.8388 17.1511 48.1063 17.4097 48.4035 17.4097H49.3248C49.622 17.4097 49.8895 17.1511 49.8895 16.8637V9.19052C49.8895 9.19052 51.4944 7.55243 53.7234 7.55243C55.3877 7.55243 56.3982 8.61575 56.3982 10.7999V16.8637C56.3982 17.1511 56.6656 17.4097 56.9628 17.4097H57.9139C58.2111 17.4097 58.4786 17.1511 58.4786 16.8637V10.7999C58.4786 7.81107 57.3195 5.62695 53.872 5.62695C51.4052 5.62695 49.7112 7.15009 49.7112 7.15009L49.4437 6.2592C49.3843 6.02929 49.2357 5.91434 48.9682 5.91434H48.4035C48.1063 5.91434 47.8388 6.17298 47.8388 6.46037V16.8637Z" fill="#EBEBF5"/>
<path d="M0.152112 2.23163C1.25646 9.00683 7.327 14.1883 14.6502 14.1883C21.8993 14.1883 27.9209 9.11116 29.1132 2.43681C29.2659 1.81018 29.329 1.3097 29.3097 0.880914C29.3097 0.389668 28.9454 0.00830078 28.4404 0.00830078H27.621H1.81709H0.872732C0.368038 0.00830078 0.00392374 0.389094 0.00337651 0.879807C0.00225059 0.879765 0.00112508 0.879722 0 0.879677C0.000688725 0.890653 0.00139037 0.901626 0.00210493 0.912595C-0.0110673 1.28607 0.037421 1.71405 0.152112 2.23163H0.152112Z" fill="#EBEBF5"/>
<path d="M21.8562 22.8673C21.304 19.4797 18.2687 16.889 14.6071 16.889C10.9826 16.889 7.97176 19.4276 7.37562 22.7647C7.29929 23.0781 7.26771 23.3283 7.27736 23.5427C7.27736 23.7883 7.4595 23.979 7.71204 23.979H8.1217H21.0237H21.4959C21.7482 23.979 21.9303 23.7886 21.9305 23.5433C21.9311 23.5433 21.9317 23.5433 21.9322 23.5433C21.9319 23.5378 21.9315 23.5323 21.9312 23.5269C21.9378 23.3401 21.9135 23.1261 21.8562 22.8673Z" fill="#EBEBF5"/>
</svg>
