<svg width="16" height="16" viewBox="0 0 16 16" fill="none" xmlns="http://www.w3.org/2000/svg">
<path d="M11.9594 10.4068C11.8937 10.4071 11.8286 10.3943 11.768 10.3691C11.7073 10.3439 11.6523 10.3069 11.6061 10.2601L7.95942 6.61345L4.31276 10.2601C4.26698 10.3092 4.21178 10.3486 4.15045 10.376C4.08912 10.4033 4.02291 10.418 3.95577 10.4192C3.88864 10.4204 3.82195 10.408 3.75969 10.3829C3.69743 10.3577 3.64088 10.3203 3.5934 10.2728C3.54592 10.2253 3.50849 10.1688 3.48334 10.1065C3.45819 10.0443 3.44584 9.97757 3.44703 9.91044C3.44821 9.8433 3.46291 9.77709 3.49024 9.71576C3.51756 9.65443 3.55697 9.59923 3.60609 9.55345L7.60609 5.55345C7.69984 5.45982 7.82692 5.40723 7.95942 5.40723C8.09192 5.40723 8.21901 5.45982 8.31276 5.55345L12.3128 9.55345C12.4064 9.6472 12.459 9.77429 12.459 9.90679C12.459 10.0393 12.4064 10.1664 12.3128 10.2601C12.2666 10.3069 12.2116 10.3439 12.1509 10.3691C12.0902 10.3943 12.0251 10.4071 11.9594 10.4068Z" fill="white"/>
</svg>
