<svg width="108" height="16" viewBox="0 0 108 16" fill="none" xmlns="http://www.w3.org/2000/svg">
<path d="M23.1543 8.32978C23.1543 10.3606 23.927 11.7976 26.2254 11.7976C27.8699 11.7976 28.8011 10.7821 28.8011 10.7821L28.9398 11.2803C28.9992 11.4718 29.0785 11.606 29.2964 11.606H29.6729C29.871 11.606 30.0493 11.4335 30.0493 11.2419V4.3064C30.0493 4.11481 29.871 3.94238 29.6729 3.94238H29.0586C28.8605 3.94238 28.6822 4.11481 28.6822 4.3064V9.42184C28.6822 9.42184 27.8302 10.5139 26.3244 10.5139C25.2149 10.5139 24.5412 9.80502 24.5412 8.34894V4.3064C24.5412 4.11481 24.3629 3.94238 24.1648 3.94238H23.5307C23.3326 3.94238 23.1543 4.11481 23.1543 4.3064V8.32978Z" fill="#08BD80"/>
<path fillRule="evenodd" clipRule="evenodd" d="M44.0002 6.73977C41.9594 6.73977 40.8301 7.83183 40.8301 9.28791C40.8301 10.8206 41.8802 11.7977 43.2671 11.7977C44.4955 11.7977 45.3079 11.2038 45.724 10.8015L45.8825 11.3188C45.9419 11.4912 46.0013 11.6061 46.2193 11.6061H46.5957C46.7939 11.6061 46.9722 11.4337 46.9722 11.2421V6.98884C46.9722 4.74724 46.4769 3.75098 44.4559 3.75098C42.9699 3.75098 41.8207 4.19163 41.7019 4.24911C41.5235 4.32574 41.4047 4.4407 41.4839 4.67061L41.6424 5.14958C41.7019 5.32201 41.8207 5.4178 42.0189 5.34117C42.3755 5.20706 43.3067 4.91967 44.3965 4.91967C45.5258 4.91967 45.7041 5.57108 45.6843 6.98884C45.6843 6.98884 44.8522 6.73977 44.0002 6.73977ZM43.4848 10.6483C42.6328 10.6483 42.0979 10.0544 42.0979 9.28801C42.0979 8.29175 42.8904 7.7553 43.9999 7.7553C44.8717 7.7553 45.4265 7.92773 45.6642 8.06184V9.57539C45.3274 10.0544 44.4755 10.6483 43.4848 10.6483Z" fill="#2D81F7"/>
<path d="M48.8174 7.79351C48.8174 10.0926 50.6798 11.7977 52.8791 11.7977C54.2264 11.7977 55.3161 11.108 55.9105 10.1884C56.0294 9.99679 55.97 9.78604 55.7718 9.65193L55.5539 9.49866C55.3359 9.34539 55.1973 9.30707 54.9595 9.53698C54.5038 9.95847 54.0481 10.5332 52.8593 10.5332C51.3733 10.5332 50.2439 9.30707 50.2439 7.77435C50.2439 6.24164 51.3931 5.05378 52.8791 5.05378C53.6518 5.05378 54.3057 5.4178 54.7019 5.85846C54.8802 6.01173 54.9793 6.20332 55.2765 5.9351L55.653 5.62855C55.8313 5.49444 55.8709 5.26453 55.7322 5.0921C55.0189 4.21079 54.0877 3.75098 52.8989 3.75098C50.7393 3.75098 48.8174 5.53276 48.8174 7.79351Z" fill="#2D81F7"/>
<path fillRule="evenodd" clipRule="evenodd" d="M60.9865 6.73977C58.9458 6.73977 57.8164 7.83183 57.8164 9.28791C57.8164 10.8206 58.8665 11.7977 60.2534 11.7977C61.4818 11.7977 62.2942 11.2038 62.7103 10.8015L62.8688 11.3188C62.9282 11.4912 62.9876 11.6061 63.2056 11.6061H63.582C63.7802 11.6061 63.9585 11.4337 63.9585 11.2421V6.98884C63.9585 4.74724 63.4632 3.75098 61.4422 3.75098C59.9562 3.75098 58.8071 4.19163 58.6882 4.24911C58.5099 4.32574 58.391 4.4407 58.4702 4.67061L58.6287 5.14958C58.6882 5.32201 58.8071 5.4178 59.0052 5.34117C59.3618 5.20706 60.2931 4.91967 61.3828 4.91967C62.5121 4.91967 62.6904 5.57108 62.6706 6.98884C62.6706 6.98884 61.8385 6.73977 60.9865 6.73977ZM60.4706 10.6483C59.6186 10.6483 59.0836 10.0544 59.0836 9.28801C59.0836 8.29175 59.8762 7.7553 60.9857 7.7553C61.8575 7.7553 62.4123 7.92773 62.6501 8.06184V9.57539C62.3132 10.0544 61.4613 10.6483 60.4706 10.6483Z" fill="#2D81F7"/>
<path fillRule="evenodd" clipRule="evenodd" d="M69.6078 3.75097C67.2303 3.75097 65.8037 5.5136 65.8037 7.75519C65.8037 9.95847 67.3888 11.7977 69.4097 11.7977C70.8957 11.7977 71.8467 10.7823 71.8467 10.7823L71.9656 11.2996C72.0052 11.472 72.1241 11.6061 72.3024 11.6061H72.7185C72.9167 11.6061 73.095 11.4337 73.095 11.2421V0.36402C73.095 0.17243 72.9167 0 72.7185 0H72.1043C71.9062 0 71.7279 0.17243 71.7279 0.36402V4.24911C71.7279 4.24911 70.9155 3.75097 69.6078 3.75097ZM69.5479 10.5907C68.1016 10.5907 67.1901 9.2687 67.1901 7.7743C67.1901 6.24159 68.0619 5.03457 69.7857 5.03457C70.8754 5.03457 71.7076 5.49439 71.7076 5.49439V9.32617C71.7076 9.32617 70.9745 10.5907 69.5479 10.5907Z" fill="#2D81F7"/>
<path fillRule="evenodd" clipRule="evenodd" d="M78.8228 3.75098C76.4254 3.75098 74.9395 5.60939 74.9395 7.77435C74.9395 9.97763 76.4254 11.7977 78.8228 11.7977C80.1899 11.7977 81.2599 11.2804 81.7354 10.9164C82.0326 10.7057 81.9533 10.5907 81.8146 10.4183C81.7552 10.3417 81.7007 10.2698 81.6462 10.198C81.5917 10.1261 81.5372 10.0543 81.4778 9.97763C81.3332 9.78541 81.2216 9.8482 80.9927 9.97702C80.9706 9.98944 80.9474 10.0025 80.923 10.0159C80.4673 10.2842 79.7937 10.5907 78.9615 10.5907C77.5548 10.5907 76.3858 9.3837 76.3066 8.10006H82.0128C82.1911 8.10006 82.3496 7.96594 82.3694 7.77435C82.3892 7.64024 82.409 7.39118 82.409 7.25706C82.409 5.24537 80.9032 3.75098 78.8228 3.75098ZM81.0409 7.0271H76.3254C76.4641 5.83925 77.4944 4.91962 78.8219 4.91962C80.0305 4.91962 80.9815 5.91589 81.0409 7.0271Z" fill="#2D81F7"/>
<path d="M84.2539 11.2421C84.2539 11.4337 84.4322 11.6061 84.6304 11.6061H85.2446C85.4427 11.6061 85.621 11.4337 85.621 11.2421V6.12668C85.621 6.12668 86.473 5.03462 87.8797 5.03462C89.0883 5.03462 89.762 5.7435 89.762 7.19958V11.2421C89.762 11.4337 89.9403 11.6061 90.1384 11.6061H90.7725C90.9706 11.6061 91.1489 11.4337 91.1489 11.2421V7.19958C91.1489 6.79725 91.1093 6.43323 91.0498 6.10752C91.3272 5.85846 92.1792 5.03462 93.4671 5.03462C94.6162 5.03462 95.2502 5.76266 95.2502 7.19958V11.2421C95.2502 11.4337 95.4286 11.6061 95.6267 11.6061H96.2607C96.4588 11.6061 96.6372 11.4337 96.6372 11.2421V7.19958C96.6372 5.20705 95.8645 3.75098 93.5661 3.75098C91.9811 3.75098 90.713 4.91967 90.614 4.99631C90.0988 4.19163 89.2468 3.75098 88.0779 3.75098C86.4334 3.75098 85.5021 4.7664 85.5021 4.7664L85.3238 4.17247C85.2842 4.0192 85.1851 3.94257 85.0068 3.94257H84.6304C84.4322 3.94257 84.2539 4.115 84.2539 4.30659V11.2421Z" fill="#2D81F7"/>
<path d="M102.213 11.5868L100.609 15.5208C100.47 15.7891 100.628 15.9998 100.926 15.9998H101.659C101.797 15.9998 101.936 15.8848 101.996 15.7699L107.147 4.38304C107.285 4.13397 107.147 3.94238 106.85 3.94238H106.097C105.958 3.94238 105.819 4.03818 105.76 4.15313L102.986 10.0158L100.034 4.15313C99.9743 4.03818 99.8555 3.94238 99.697 3.94238H98.8252C98.528 3.94238 98.4091 4.11481 98.528 4.36388L102.213 11.5868Z" fill="#2D81F7"/>
<path d="M31.8926 11.2421C31.8926 11.4337 32.0709 11.6061 32.269 11.6061H32.8832C33.0814 11.6061 33.2597 11.4337 33.2597 11.2421V6.12668C33.2597 6.12668 34.3296 5.03462 35.8156 5.03462C36.9251 5.03462 37.5988 5.7435 37.5988 7.19958V11.2421C37.5988 11.4337 37.7771 11.6061 37.9753 11.6061H38.6093C38.8074 11.6061 38.9857 11.4337 38.9857 11.2421V7.19958C38.9857 5.20705 38.213 3.75098 35.9147 3.75098C34.2702 3.75098 33.1408 4.7664 33.1408 4.7664L32.9625 4.17247C32.9229 4.0192 32.8238 3.94257 32.6455 3.94257H32.269C32.0709 3.94257 31.8926 4.115 31.8926 4.30659V11.2421Z" fill="#08BD80"/>
<path d="M0.101408 1.49003C0.837639 6.00683 4.88466 9.46112 9.76679 9.46112C14.5995 9.46112 18.6139 6.07639 19.4088 1.62682C19.5106 1.20906 19.5527 0.875412 19.5398 0.589555C19.5398 0.262057 19.297 0.0078125 18.9602 0.0078125H18.414H1.2114H0.581821C0.245358 0.0078125 0.00261583 0.261675 0.00225101 0.588816C0.00150039 0.588788 0.000750057 0.58876 0 0.58873C0.00045915 0.596047 0.000926915 0.603362 0.00140329 0.610675C-0.00737819 0.859661 0.0249473 1.14498 0.101408 1.49003L0.101408 1.49003Z" fill="#2D81F7"/>
<path d="M14.5704 15.2442C14.2023 12.9858 12.1788 11.2587 9.7377 11.2587C7.32134 11.2587 5.31412 12.9511 4.91669 15.1758C4.8658 15.3847 4.84475 15.5516 4.85118 15.6945C4.85118 15.8582 4.97261 15.9854 5.14097 15.9854H5.41408L14.0154 15.9854H14.3302C14.4984 15.9854 14.6198 15.8584 14.62 15.6948C14.6203 15.6949 14.6207 15.6949 14.6211 15.6949C14.6209 15.6912 14.6206 15.6876 14.6204 15.6839C14.6248 15.5594 14.6086 15.4168 14.5704 15.2442Z" fill="#08BD80"/>
</svg>
